<svg width="50" height="50" viewBox="0 0 50 50" fill="none" xmlns="http://www.w3.org/2000/svg">
<path d="M18.7499 4.16666H10.4166V8.33332H6.24992V12.5H2.08325V25H6.24992V29.1667H10.4166V33.3333H14.5833V37.5H18.7499V41.6667H22.9166V45.8333H27.0833V41.6667H31.2499V37.5H35.4166V33.3333H39.5833V29.1667H43.7499V25H47.9166V12.5H43.7499V8.33332H39.5833V4.16666H31.2499V8.33332H27.0833V12.5H22.9166V8.33332H18.7499V4.16666ZM18.7499 8.33332V12.5H22.9166V16.6667H27.0833V12.5H31.2499V8.33332H39.5833V12.5H43.7499V25H39.5833V29.1667H35.4166V33.3333H31.2499V37.5H27.0833V41.6667H22.9166V37.5H18.7499V33.3333H14.5833V29.1667H10.4166V25H6.24992V12.5H10.4166V8.33332H18.7499Z" fill="#CA5497"/>
<path d="M18.7499 12.5V8.33332H10.4166V12.5H6.24992V25H10.4166V29.1667H14.5833V33.3333H18.7499V37.5H22.9166V41.6667H27.0833V37.5H31.2499V33.3333H35.4166V29.1667H39.5833V25H43.7499V12.5H39.5833V8.33332H31.2499V12.5H27.0833V16.6667H22.9166V12.5H18.7499Z" fill="#CA5497"/>
</svg>
