<svg width="39" height="32" viewBox="0 0 39 32" fill="none" xmlns="http://www.w3.org/2000/svg">
<path d="M6.09873 28.79H12.2962V25.6913H27.7898V28.79H33.9873V25.6913H37.086V10.1976H33.9873V7.09892H30.8885V4.00019H21.5924L18.4936 4.00009L9.19745 4.00019V7.09892H6.09873V10.1976H3V25.6913H6.09873V28.79ZM12.2962 19.4938V16.3951H9.19745V13.2964H12.2962V10.1976H15.3949V13.2964H18.4936V16.3951H15.3949V19.4938H12.2962ZM24.6911 19.4938V16.3951H21.5924V13.2964H24.6911V10.1976H27.7898V13.2964H30.8885V16.3951H27.7898V19.4938H24.6911ZM24.6911 16.3951H27.7898V13.2964H24.6911V16.3951Z" fill="white"/>
</svg>
